<svg viewBox="0 0 200 200" xmlns="http://www.w3.org/2000/svg" fill-rule="evenodd" clip-rule="evenodd" stroke-linejoin="round" stroke-miterlimit="1.414"><g fill-rule="nonzero"><g fill="#872054"><path d="M50.267 83.968c-.01-1.073.028-2.408.153-2.674.052.033.092.05.155.828.229 2.664.24 7.902.024 8.223-.236-.338-.351-4.4-.332-6.377M51.355 90.619c-.026-1.794.19-2.835.513-2.529.104.103.189.329.28.544.785 2.634.747 7.81.132 7.376-.435-.294-.883-2.958-.925-5.391M57.403 100.337c-.097-1.753.372-2.76 1.05-2.155.038.033.085.088.113.12 1.34 1.724 1.42 5.924.408 5.886-.664-.028-1.444-1.932-1.571-3.85M61.55 103.691c-.113-1.28.231-2.679 1.185-1.969 1.437 1.36 1.573 5.067.513 5.165-.71.073-1.54-1.485-1.698-3.196M66.093 106.248c-.131-1.124.177-2.409 1.143-1.884 1.458 1.05 1.646 4.34.572 4.535-.702.133-1.543-1.156-1.715-2.651M70.841 108.122c-.148-.996.142-2.175 1.089-1.804 1.472.823 1.693 3.743.63 4.021-.687.178-1.53-.9-1.719-2.217M75.733 109.439c-.172-.961.153-1.857.982-1.626 1.26.544 1.583 2.892.71 3.344-.632.336-1.482-.534-1.692-1.718M80.573 110.271c-.148-.732.082-1.665.907-1.502 1.2.399 1.53 2.45.716 2.91-.591.323-1.409-.39-1.623-1.408M85.425 110.71c-.146-.622.05-1.44.791-1.347 1.093.276 1.404 2.025.678 2.456-.518.329-1.267-.236-1.47-1.109M90.088 110.82c-.125-.508.026-1.2.643-1.17.933.172 1.217 1.63.62 2.039-.436.288-1.07-.156-1.263-.868M94.438 110.668c-.118-.412-.005-.986.506-.984.752.103 1.013 1.292.54 1.644-.354.243-.879-.083-1.046-.66M98.48 110.337c-.09-.334-.01-.796.397-.813.568.053.83.913.48 1.257-.258.27-.73.027-.878-.444M102.231 109.847c-.073-.243-.014-.574.285-.607.41.03.605.658.368.903-.2.204-.53.048-.653-.296M54.346 113.776c-.174-.717-.773-3.096-.605-3.364.06.012.136.12.285.472.88 2.22 2.352 7.942 2.195 8.501-.354-.115-1.383-3.702-1.875-5.609M56.941 118.502c-.534-1.979-.617-3.311-.181-3.1.092.052.214.21.294.306 1.432 2.13 2.706 7.744 1.953 7.48-.467-.168-1.453-2.398-2.066-4.686M60.575 122.13c-.53-1.852-.452-3.121.163-2.835.078.04.181.12.24.173 1.635 1.678 2.737 6.645 1.79 6.563-.594-.055-1.627-1.91-2.193-3.901M64.885 124.817c-.497-1.719-.297-2.905.443-2.564.035.025.099.057.134.075 1.72 1.287 2.671 5.64 1.602 5.695-.636.037-1.649-1.465-2.179-3.206M69.612 126.718c-.389-1.227-.374-2.714.645-2.3 1.618.908 2.544 4.515 1.576 4.927-.638.263-1.72-1.006-2.22-2.627M74.565 127.997c-.377-1.08-.318-2.43.695-2.15 1.594.678 2.426 3.866 1.436 4.328-.63.291-1.667-.768-2.131-2.178M79.645 128.75c-.356-1.044-.195-2.062.676-1.909 1.484.477 2.183 3.17 1.272 3.63-.594.301-1.536-.54-1.948-1.72M84.692 129.071c-.294-.78-.214-1.819.66-1.73 1.295.308 1.98 2.515 1.234 3.087-.54.42-1.51-.266-1.894-1.357M89.73 129.056c-.247-.67-.177-1.57.617-1.548 1.173.198 1.762 2.07 1.079 2.622-.49.389-1.352-.148-1.696-1.074M94.586 128.75c-.216-.542-.158-1.312.507-1.317.998.115 1.502 1.663.916 2.157-.394.342-1.128-.08-1.423-.84M99.106 128.246c-.18-.442-.132-1.066.414-1.109.79.06 1.225 1.33.77 1.739-.339.303-.942-.01-1.184-.63M103.32 127.591c-.151-.339-.11-.835.312-.88.66.017 1.001 1.008.632 1.357-.271.24-.745.007-.945-.477M107.215 126.844c-.092-.246-.069-.623.247-.663.46.005.714.72.445.981-.186.186-.544.03-.692-.318M103.484 28.7c-.798-2.772-4.17-4.43-8.453-2.363-5.278 3.06-4.917 8.585-.723 10.027 4.81 1.641 10.46-3.088 9.176-7.664M86.98 36.337c-.422-2.767-3.12-4.187-6.699-1.656-4.71 3.828-4.595 9.786-.88 10.454 3.796.697 8.25-4.488 7.578-8.798M72.98 45.79c-.167-2.785-2.103-4.07-4.906-1.278-3.874 4.413-3.843 10.645-.817 10.612 2.779-.023 5.99-5.258 5.723-9.335M62.137 56.253c-.017-2.556-1.041-3.48-2.39-2.14-.305.314-.587.72-.787 1.011-2.74 4.546-2.77 10.938-.617 10.323 1.78-.5 3.831-5.486 3.794-9.194M54.88 66.706c.029-2.074-.332-3.103-.904-2.55-.292.263-.523.887-.669 1.213-1.415 3.971-1.53 9.945-.468 9.6.89-.28 1.987-4.758 2.041-8.263"/><path d="M51.204 75.968c.019-1.517-.03-2.43-.137-2.712 0 0-.042-.005-.07-.005-.09.153-.137.374-.238 1.074-.415 3.138-.58 8.46-.276 9.031a.257.257 0 0 1 .078-.017c.323-.765.603-4.875.643-7.37M132.074 45.556c-1.571-4.375-6.355-8.05-11.322-6.362-6.677 3.196-3.67 13.007 3.093 15.468 5.928 2.155 10.475-2.862 8.229-9.106M112.9 51.481c-1.368-4.39-5.789-7.608-10.523-5.187-6.243 4.131-3.686 13.915 2.48 15.62 5.53 1.546 9.963-4.209 8.043-10.433M94.652 59.978c-1.142-4.234-4.899-7.039-8.94-4.17-5.58 4.935-2.937 14.75 2.664 15.246 4.446.391 7.795-5.504 6.276-11.076M79.061 70.07c-.98-4.069-4.013-6.547-7.162-3.487-4.482 5.387-1.653 15.067 2.866 14.518 3.377-.399 5.542-5.973 4.296-11.03M66.932 80.845c-.876-3.785-3.149-6.016-5.302-3.005-2.95 5.107-.553 14.068 2.612 13.446 2.4-.47 3.757-5.732 2.69-10.44M58.74 91.284c-.767-3.372-2.15-4.95-3.092-3.543-.12.176-.228.444-.318.633-1.514 4.613.78 12.927 2.648 11.946 1.269-.668 1.639-5.143.763-9.036M54.522 100.24c-.657-2.863-1.462-4.443-1.874-3.678-.085.175-.127.494-.163.697-.365 4.044 1.595 11.56 2.504 10.893.584-.424.367-4.35-.467-7.913M53.317 107.743c-.285-1.182-.787-3.219-1.03-3.608 0 0-.02.018-.044.018-.005.148 0 .22.05.635.418 2.862 1.947 9.279 2.317 9.673.148-.379-.827-4.772-1.293-6.718M121.054 23.784c-1.008-2.27-4.673-4.807-9.67-3.362-5.24 2.004-4.586 6.941-.274 9.034 5.252 2.563 11.508-.62 10.127-5.15a6.125 6.125 0 0 0-.183-.522"/></g><g fill="#4a2233"><path d="M150.263 116.034c.004 1.066-.038 2.408-.149 2.676-.056-.037-.085-.06-.165-.822-.223-2.675-.23-7.898-.023-8.236.24.338.355 4.4.337 6.382M149.165 109.38c.03 1.8-.181 2.836-.509 2.535-.108-.103-.198-.332-.275-.552-.785-2.63-.747-7.81-.113-7.386.417.301.864 2.97.897 5.404M143.133 99.66c.102 1.758-.376 2.772-1.055 2.16-.037-.033-.077-.093-.113-.118-1.335-1.729-1.42-5.923-.407-5.885.669.025 1.434 1.921 1.575 3.843M138.986 96.308c.113 1.28-.236 2.672-1.194 1.975-1.432-1.36-1.569-5.073-.497-5.168.7-.075 1.533 1.482 1.691 3.193M134.433 93.752c.146 1.131-.176 2.406-1.128 1.884-1.467-1.046-1.653-4.327-.574-4.53.69-.134 1.53 1.15 1.702 2.646M129.7 91.88c.153.997-.154 2.176-1.103 1.802-1.448-.818-1.677-3.74-.621-4.019.687-.176 1.526.898 1.724 2.218M124.803 90.564c.167.97-.158 1.861-.987 1.625-1.264-.544-1.573-2.895-.713-3.344.63-.341 1.49.537 1.7 1.719M119.956 89.73c.149.733-.082 1.669-.904 1.506-1.192-.396-1.517-2.459-.714-2.908.6-.328 1.406.374 1.618 1.403M115.112 89.294c.148.62-.043 1.438-.792 1.345-1.093-.276-1.413-2.027-.673-2.461.523-.324 1.262.238 1.465 1.116M110.437 89.179c.14.514-.015 1.204-.63 1.174-.939-.176-1.229-1.636-.616-2.035.43-.303 1.064.143 1.246.86M106.091 89.33c.123.418.014.99-.497.983-.746-.096-1.017-1.29-.534-1.638.348-.244.873.08 1.031.654M102.055 89.67c.098.33.018.79-.39.798-.576-.045-.83-.898-.489-1.244.27-.273.725-.038.879.446M98.303 90.155c.073.238.023.574-.276.597-.424-.018-.607-.64-.372-.903.188-.196.54-.036.648.306M146.176 86.226c.18.718.766 3.103.617 3.362-.06-.015-.127-.11-.275-.472-.888-2.215-2.36-7.937-2.202-8.51.339.126 1.382 3.726 1.86 5.62M143.59 81.49c.535 1.987.608 3.314.177 3.106-.087-.046-.22-.204-.3-.297-1.426-2.142-2.691-7.759-1.942-7.48.473.16 1.453 2.398 2.065 4.67M139.956 77.875c.53 1.844.443 3.12-.153 2.835-.094-.046-.186-.12-.254-.176-1.635-1.676-2.723-6.645-1.776-6.558.575.046 1.627 1.907 2.183 3.899M135.642 75.186c.515 1.718.301 2.907-.443 2.563-.04-.025-.087-.057-.13-.08-1.714-1.287-2.659-5.63-1.61-5.687.635-.043 1.657 1.455 2.183 3.204M130.929 73.282c.381 1.236.372 2.714-.652 2.305-1.623-.91-2.537-4.52-1.56-4.93.613-.268 1.694 1.009 2.212 2.625M125.976 72.007c.358 1.079.313 2.426-.704 2.143-1.595-.678-2.417-3.866-1.437-4.32.627-.294 1.663.765 2.141 2.177M120.884 71.25c.36 1.036.2 2.062-.68 1.904-1.468-.472-2.186-3.166-1.256-3.633.589-.293 1.529.547 1.936 1.729M115.844 70.928c.29.783.21 1.82-.655 1.734-1.304-.311-1.985-2.516-1.234-3.09.535-.422 1.5.268 1.89 1.356M110.802 70.948c.261.663.176 1.563-.608 1.536-1.168-.198-1.766-2.06-1.088-2.612.485-.391 1.352.148 1.696 1.076M105.948 71.25c.216.549.157 1.307-.511 1.314-.99-.113-1.5-1.66-.917-2.152.413-.344 1.143.077 1.428.838M101.43 71.756c.18.44.123 1.064-.414 1.107-.79-.058-1.218-1.327-.766-1.734.342-.298.935.01 1.18.627M97.222 72.411c.136.334.108.843-.323.883-.66-.022-.996-1.008-.617-1.36.28-.25.735-.01.94.477M93.312 73.156c.101.253.078.625-.23.665-.467-.005-.721-.725-.453-.981.196-.19.535-.028.683.316M97.055 171.29c.786 2.791 4.166 4.437 8.452 2.375 5.266-3.063 4.92-8.585.716-10.015-4.811-1.645-10.469 3.068-9.168 7.64M113.552 163.663c.436 2.767 3.112 4.182 6.696 1.666 4.71-3.836 4.59-9.794.876-10.466-3.784-.69-8.224 4.495-7.572 8.8M127.55 154.213c.176 2.78 2.107 4.069 4.92 1.277 3.869-4.413 3.831-10.647.795-10.612-2.767.023-5.977 5.258-5.716 9.335M138.395 143.75c.026 2.553 1.046 3.474 2.386 2.132.315-.309.581-.705.79-1.006 2.745-4.554 2.766-10.938.623-10.326-1.786.502-3.827 5.486-3.8 9.2M145.656 133.288c-.043 2.075.332 3.11.892 2.554.29-.258.533-.88.66-1.212 1.43-3.968 1.538-9.946.473-9.603-.89.284-1.983 4.762-2.025 8.261"/><path d="M149.33 124.036c-.024 1.516.016 2.426.127 2.71 0 0 .047.002.07 0 .09-.156.137-.374.24-1.069.413-3.14.578-8.46.279-9.031a.16.16 0 0 1-.078.02c-.332.768-.598 4.87-.638 7.37M68.465 154.449c1.56 4.372 6.33 8.05 11.321 6.361 6.67-3.198 3.644-13.01-3.099-15.478-5.923-2.137-10.457 2.873-8.222 9.117M87.65 148.52c1.36 4.388 5.763 7.607 10.516 5.189 6.239-4.14 3.681-13.916-2.48-15.634-5.54-1.53-9.97 4.222-8.036 10.446M105.896 140.024c1.14 4.242 4.887 7.04 8.924 4.167 5.581-4.93 2.941-14.741-2.655-15.233-4.446-.396-7.8 5.497-6.27 11.066M121.463 129.932c.994 4.059 4.025 6.545 7.167 3.487 4.496-5.381 1.658-15.075-2.857-14.52-3.377.401-5.55 5.97-4.31 11.033M133.61 119.16c.875 3.783 3.134 6.015 5.282 3.005 2.95-5.11.572-14.064-2.603-13.446-2.4.461-3.754 5.737-2.68 10.44M141.791 108.721c.763 3.367 2.146 4.945 3.092 3.537.111-.173.233-.444.314-.63 1.507-4.605-.78-12.929-2.655-11.94-1.253.657-1.622 5.137-.751 9.033M146 99.755c.664 2.87 1.465 4.453 1.872 3.683.09-.18.144-.494.167-.695.365-4.039-1.582-11.562-2.492-10.898-.593.432-.372 4.348.453 7.91M147.203 92.257c.295 1.181.796 3.218 1.036 3.607.015-.005.024-.007.033-.02.02-.14.015-.216-.04-.63-.419-2.862-1.957-9.284-2.296-9.67-.167.374.8 4.761 1.267 6.713M79.494 176.211c.999 2.273 4.659 4.817 9.661 3.362 5.24-1.987 4.574-6.94.28-9.031-5.256-2.557-11.51.627-10.148 5.165.054.15.137.351.207.504"/></g></g></svg>