<?xml version="1.0" encoding="UTF-8" standalone="no"?>
<!DOCTYPE svg PUBLIC "-//W3C//DTD SVG 1.1//EN" "http://www.w3.org/Graphics/SVG/1.1/DTD/svg11.dtd">
<svg width="100%" height="100%" viewBox="0 0 200 200" version="1.1" xmlns="http://www.w3.org/2000/svg" xmlns:xlink="http://www.w3.org/1999/xlink" xml:space="preserve" style="fill-rule:evenodd;clip-rule:evenodd;stroke-linejoin:round;stroke-miterlimit:1.41421;">
    <g transform="matrix(2.35517,-2.12875e-18,-2.25913e-18,2.50864,-33.6904,-12.963)">
        <g id="Ebene-1">
            <g>
                <g>
                    <path d="M35.648,38.639C35.644,38.211 35.66,37.679 35.713,37.573C35.735,37.586 35.752,37.593 35.779,37.903C35.876,38.965 35.881,41.053 35.789,41.181C35.689,41.046 35.64,39.427 35.648,38.639" style="fill:rgb(135,32,84);fill-rule:nonzero;"/>
                    <path d="M36.11,41.29C36.099,40.575 36.191,40.16 36.328,40.282C36.372,40.323 36.408,40.413 36.447,40.499C36.78,41.549 36.764,43.612 36.503,43.439C36.318,43.322 36.128,42.26 36.11,41.29" style="fill:rgb(135,32,84);fill-rule:nonzero;"/>
                    <path d="M38.678,45.164C38.637,44.465 38.836,44.064 39.124,44.305C39.14,44.318 39.16,44.34 39.172,44.353C39.741,45.04 39.775,46.714 39.345,46.699C39.063,46.688 38.732,45.929 38.678,45.164" style="fill:rgb(135,32,84);fill-rule:nonzero;"/>
                    <path d="M40.439,46.501C40.391,45.991 40.537,45.433 40.942,45.716C41.552,46.258 41.61,47.736 41.16,47.775C40.858,47.804 40.506,47.183 40.439,46.501" style="fill:rgb(135,32,84);fill-rule:nonzero;"/>
                    <path d="M42.368,47.52C42.312,47.072 42.443,46.56 42.853,46.769C43.472,47.188 43.552,48.499 43.096,48.577C42.798,48.63 42.441,48.116 42.368,47.52" style="fill:rgb(135,32,84);fill-rule:nonzero;"/>
                    <path d="M44.384,48.267C44.321,47.87 44.444,47.4 44.846,47.548C45.471,47.876 45.565,49.04 45.114,49.151C44.822,49.222 44.464,48.792 44.384,48.267" style="fill:rgb(135,32,84);fill-rule:nonzero;"/>
                    <path d="M46.461,48.792C46.388,48.409 46.526,48.052 46.878,48.144C47.413,48.361 47.55,49.297 47.179,49.477C46.911,49.611 46.55,49.264 46.461,48.792" style="fill:rgb(135,32,84);fill-rule:nonzero;"/>
                    <path d="M48.516,49.124C48.453,48.832 48.551,48.46 48.901,48.525C49.411,48.684 49.551,49.502 49.205,49.685C48.954,49.814 48.607,49.53 48.516,49.124" style="fill:rgb(135,32,84);fill-rule:nonzero;"/>
                    <path d="M50.576,49.299C50.514,49.051 50.597,48.725 50.912,48.762C51.376,48.872 51.508,49.569 51.2,49.741C50.98,49.872 50.662,49.647 50.576,49.299" style="fill:rgb(135,32,84);fill-rule:nonzero;"/>
                    <path d="M52.556,49.343C52.503,49.14 52.567,48.864 52.829,48.876C53.225,48.945 53.346,49.526 53.092,49.689C52.907,49.804 52.638,49.627 52.556,49.343" style="fill:rgb(135,32,84);fill-rule:nonzero;"/>
                    <path d="M54.403,49.282C54.353,49.118 54.401,48.889 54.618,48.89C54.937,48.931 55.048,49.405 54.847,49.545C54.697,49.642 54.474,49.512 54.403,49.282" style="fill:rgb(135,32,84);fill-rule:nonzero;"/>
                    <path d="M56.119,49.15C56.081,49.017 56.115,48.833 56.288,48.826C56.529,48.847 56.64,49.19 56.492,49.327C56.382,49.435 56.182,49.338 56.119,49.15" style="fill:rgb(135,32,84);fill-rule:nonzero;"/>
                    <path d="M57.712,48.955C57.681,48.858 57.706,48.726 57.833,48.713C58.007,48.725 58.09,48.975 57.989,49.073C57.904,49.154 57.764,49.092 57.712,48.955" style="fill:rgb(135,32,84);fill-rule:nonzero;"/>
                    <path d="M37.38,50.521C37.306,50.235 37.052,49.287 37.123,49.18C37.149,49.185 37.181,49.228 37.244,49.368C37.618,50.253 38.243,52.534 38.176,52.757C38.026,52.711 37.589,51.281 37.38,50.521" style="fill:rgb(135,32,84);fill-rule:nonzero;"/>
                    <path d="M38.482,52.405C38.255,51.616 38.22,51.085 38.405,51.169C38.444,51.19 38.496,51.253 38.53,51.291C39.138,52.14 39.679,54.378 39.359,54.273C39.161,54.206 38.742,53.317 38.482,52.405" style="fill:rgb(135,32,84);fill-rule:nonzero;"/>
                    <path d="M40.025,53.851C39.8,53.113 39.833,52.607 40.094,52.721C40.127,52.737 40.171,52.769 40.196,52.79C40.89,53.459 41.358,55.439 40.956,55.406C40.704,55.384 40.265,54.645 40.025,53.851" style="fill:rgb(135,32,84);fill-rule:nonzero;"/>
                    <path d="M41.855,54.922C41.644,54.237 41.729,53.764 42.043,53.9C42.058,53.91 42.085,53.923 42.1,53.93C42.83,54.443 43.234,56.178 42.78,56.2C42.51,56.215 42.08,55.616 41.855,54.922" style="fill:rgb(135,32,84);fill-rule:nonzero;"/>
                    <path d="M43.862,55.68C43.697,55.191 43.703,54.598 44.136,54.763C44.823,55.125 45.216,56.563 44.805,56.727C44.534,56.832 44.075,56.326 43.862,55.68" style="fill:rgb(135,32,84);fill-rule:nonzero;"/>
                    <path d="M45.965,56.19C45.805,55.759 45.83,55.221 46.26,55.333C46.937,55.603 47.29,56.874 46.87,57.058C46.602,57.174 46.162,56.752 45.965,56.19" style="fill:rgb(135,32,84);fill-rule:nonzero;"/>
                    <path d="M48.122,56.49C47.971,56.074 48.039,55.668 48.409,55.729C49.039,55.919 49.336,56.993 48.949,57.176C48.697,57.296 48.297,56.961 48.122,56.49" style="fill:rgb(135,32,84);fill-rule:nonzero;"/>
                    <path d="M50.265,56.618C50.14,56.307 50.174,55.893 50.545,55.928C51.095,56.051 51.386,56.931 51.069,57.159C50.84,57.326 50.428,57.053 50.265,56.618" style="fill:rgb(135,32,84);fill-rule:nonzero;"/>
                    <path d="M52.404,56.612C52.299,56.345 52.329,55.986 52.666,55.995C53.164,56.074 53.414,56.82 53.124,57.04C52.916,57.195 52.55,56.981 52.404,56.612" style="fill:rgb(135,32,84);fill-rule:nonzero;"/>
                    <path d="M54.466,56.49C54.374,56.274 54.399,55.967 54.681,55.965C55.105,56.011 55.319,56.628 55.07,56.825C54.903,56.961 54.591,56.793 54.466,56.49" style="fill:rgb(135,32,84);fill-rule:nonzero;"/>
                    <path d="M56.385,56.289C56.309,56.113 56.329,55.864 56.561,55.847C56.896,55.871 57.081,56.377 56.888,56.54C56.744,56.661 56.488,56.536 56.385,56.289" style="fill:rgb(135,32,84);fill-rule:nonzero;"/>
                    <path d="M58.174,56.028C58.11,55.893 58.128,55.695 58.307,55.677C58.587,55.684 58.732,56.079 58.575,56.218C58.46,56.314 58.259,56.221 58.174,56.028" style="fill:rgb(135,32,84);fill-rule:nonzero;"/>
                    <path d="M59.828,55.73C59.789,55.632 59.799,55.482 59.933,55.466C60.128,55.468 60.236,55.753 60.122,55.857C60.043,55.931 59.891,55.869 59.828,55.73" style="fill:rgb(135,32,84);fill-rule:nonzero;"/>
                    <path d="M58.244,16.608C57.905,15.503 56.473,14.842 54.655,15.666C52.414,16.886 52.567,19.088 54.348,19.663C56.39,20.317 58.789,18.432 58.244,16.608" style="fill:rgb(135,32,84);fill-rule:nonzero;"/>
                    <path d="M51.236,19.652C51.057,18.549 49.912,17.983 48.392,18.992C46.392,20.518 46.441,22.893 48.018,23.159C49.63,23.437 51.521,21.37 51.236,19.652" style="fill:rgb(135,32,84);fill-rule:nonzero;"/>
                    <path d="M45.292,23.42C45.221,22.31 44.399,21.798 43.209,22.911C41.564,24.67 41.577,27.154 42.862,27.141C44.042,27.132 45.405,25.045 45.292,23.42" style="fill:rgb(135,32,84);fill-rule:nonzero;"/>
                    <path d="M40.688,27.591C40.681,26.572 40.246,26.204 39.673,26.738C39.544,26.863 39.424,27.025 39.339,27.141C38.176,28.953 38.163,31.501 39.077,31.256C39.833,31.057 40.704,29.069 40.688,27.591" style="fill:rgb(135,32,84);fill-rule:nonzero;"/>
                    <path d="M37.607,31.758C37.619,30.931 37.466,30.521 37.223,30.741C37.099,30.846 37.001,31.095 36.939,31.225C36.338,32.808 36.289,35.189 36.74,35.052C37.118,34.94 37.584,33.155 37.607,31.758" style="fill:rgb(135,32,84);fill-rule:nonzero;"/>
                    <path d="M36.046,35.45C36.054,34.845 36.033,34.481 35.988,34.369C35.988,34.369 35.97,34.367 35.958,34.367C35.92,34.428 35.9,34.516 35.857,34.795C35.681,36.046 35.611,38.167 35.74,38.395C35.753,38.391 35.763,38.388 35.773,38.388C35.91,38.083 36.029,36.445 36.046,35.45" style="fill:rgb(135,32,84);fill-rule:nonzero;"/>
                    <path d="M70.383,23.327C69.716,21.583 67.685,20.118 65.576,20.791C62.741,22.065 64.018,25.976 66.889,26.957C69.406,27.816 71.337,25.816 70.383,23.327" style="fill:rgb(135,32,84);fill-rule:nonzero;"/>
                    <path d="M62.242,25.689C61.661,23.939 59.784,22.656 57.774,23.621C55.123,25.268 56.209,29.168 58.827,29.848C61.175,30.464 63.057,28.17 62.242,25.689" style="fill:rgb(135,32,84);fill-rule:nonzero;"/>
                    <path d="M54.494,29.076C54.009,27.388 52.414,26.27 50.698,27.414C48.329,29.381 49.451,33.293 51.829,33.491C53.717,33.647 55.139,31.297 54.494,29.076" style="fill:rgb(135,32,84);fill-rule:nonzero;"/>
                    <path d="M47.874,33.099C47.458,31.477 46.17,30.489 44.833,31.709C42.93,33.856 44.131,37.715 46.05,37.496C47.484,37.337 48.403,35.115 47.874,33.099" style="fill:rgb(135,32,84);fill-rule:nonzero;"/>
                    <path d="M42.724,37.394C42.352,35.885 41.387,34.996 40.473,36.196C39.22,38.232 40.238,41.804 41.582,41.556C42.601,41.369 43.177,39.271 42.724,37.394" style="fill:rgb(135,32,84);fill-rule:nonzero;"/>
                    <path d="M39.246,41.555C38.92,40.211 38.333,39.582 37.933,40.143C37.882,40.213 37.836,40.32 37.798,40.395C37.155,42.234 38.129,45.548 38.922,45.157C39.461,44.891 39.618,43.107 39.246,41.555" style="fill:rgb(135,32,84);fill-rule:nonzero;"/>
                    <path d="M37.455,45.125C37.176,43.984 36.834,43.354 36.659,43.659C36.623,43.729 36.605,43.856 36.59,43.937C36.435,45.549 37.267,48.545 37.653,48.279C37.901,48.11 37.809,46.545 37.455,45.125" style="fill:rgb(135,32,84);fill-rule:nonzero;"/>
                    <path d="M36.943,48.116C36.822,47.645 36.609,46.833 36.506,46.678C36.506,46.678 36.497,46.685 36.487,46.685C36.485,46.744 36.487,46.773 36.508,46.938C36.686,48.079 37.335,50.637 37.492,50.794C37.555,50.643 37.141,48.892 36.943,48.116" style="fill:rgb(135,32,84);fill-rule:nonzero;"/>
                    <path d="M65.704,14.648C65.276,13.743 63.72,12.732 61.598,13.308C59.373,14.107 59.651,16.075 61.482,16.909C63.712,17.931 66.368,16.662 65.782,14.856C65.762,14.791 65.73,14.709 65.704,14.648" style="fill:rgb(135,32,84);fill-rule:nonzero;"/>
                </g>
                <g>
                    <path d="M78.106,51.421C78.108,51.846 78.09,52.381 78.043,52.488C78.019,52.473 78.007,52.464 77.973,52.16C77.878,51.094 77.875,49.012 77.963,48.877C78.065,49.012 78.114,50.631 78.106,51.421" style="fill:rgb(74,34,51);fill-rule:nonzero;"/>
                    <path d="M77.64,48.769C77.653,49.486 77.563,49.899 77.424,49.779C77.378,49.738 77.34,49.647 77.307,49.559C76.974,48.511 76.99,46.446 77.259,46.615C77.436,46.735 77.626,47.799 77.64,48.769" style="fill:rgb(74,34,51);fill-rule:nonzero;"/>
                    <path d="M75.079,44.894C75.122,45.595 74.919,45.999 74.631,45.755C74.615,45.742 74.598,45.718 74.583,45.708C74.016,45.019 73.98,43.347 74.41,43.362C74.694,43.372 75.019,44.128 75.079,44.894" style="fill:rgb(74,34,51);fill-rule:nonzero;"/>
                    <path d="M73.318,43.558C73.366,44.068 73.218,44.623 72.811,44.345C72.203,43.803 72.145,42.323 72.6,42.285C72.897,42.255 73.251,42.876 73.318,43.558" style="fill:rgb(74,34,51);fill-rule:nonzero;"/>
                    <path d="M71.385,42.539C71.447,42.99 71.31,43.498 70.906,43.29C70.283,42.873 70.204,41.565 70.662,41.484C70.955,41.431 71.312,41.943 71.385,42.539" style="fill:rgb(74,34,51);fill-rule:nonzero;"/>
                    <path d="M69.375,41.793C69.44,42.19 69.31,42.66 68.907,42.511C68.292,42.185 68.195,41.02 68.643,40.909C68.935,40.839 69.291,41.267 69.375,41.793" style="fill:rgb(74,34,51);fill-rule:nonzero;"/>
                    <path d="M67.296,41.268C67.367,41.655 67.229,42.01 66.877,41.916C66.34,41.699 66.209,40.762 66.574,40.583C66.842,40.447 67.207,40.797 67.296,41.268" style="fill:rgb(74,34,51);fill-rule:nonzero;"/>
                    <path d="M65.238,40.936C65.301,41.228 65.203,41.601 64.854,41.536C64.348,41.378 64.21,40.556 64.551,40.377C64.806,40.246 65.148,40.526 65.238,40.936" style="fill:rgb(74,34,51);fill-rule:nonzero;"/>
                    <path d="M63.181,40.762C63.244,41.009 63.163,41.335 62.845,41.298C62.381,41.188 62.245,40.49 62.559,40.317C62.781,40.188 63.095,40.412 63.181,40.762" style="fill:rgb(74,34,51);fill-rule:nonzero;"/>
                    <path d="M61.196,40.716C61.256,40.921 61.19,41.196 60.929,41.184C60.53,41.114 60.407,40.532 60.667,40.373C60.85,40.252 61.119,40.43 61.196,40.716" style="fill:rgb(74,34,51);fill-rule:nonzero;"/>
                    <path d="M59.351,40.776C59.403,40.943 59.357,41.171 59.14,41.168C58.823,41.13 58.708,40.654 58.913,40.515C59.061,40.418 59.284,40.547 59.351,40.776" style="fill:rgb(74,34,51);fill-rule:nonzero;"/>
                    <path d="M57.637,40.912C57.679,41.043 57.645,41.227 57.472,41.23C57.227,41.212 57.119,40.872 57.264,40.734C57.379,40.625 57.572,40.719 57.637,40.912" style="fill:rgb(74,34,51);fill-rule:nonzero;"/>
                    <path d="M56.044,41.105C56.075,41.2 56.054,41.334 55.927,41.343C55.747,41.336 55.669,41.088 55.769,40.983C55.849,40.905 55.998,40.969 56.044,41.105" style="fill:rgb(74,34,51);fill-rule:nonzero;"/>
                    <path d="M76.371,39.539C76.447,39.825 76.696,40.776 76.633,40.879C76.607,40.873 76.579,40.835 76.516,40.691C76.139,39.808 75.514,37.527 75.581,37.299C75.725,37.349 76.168,38.784 76.371,39.539" style="fill:rgb(74,34,51);fill-rule:nonzero;"/>
                    <path d="M75.273,37.651C75.5,38.443 75.531,38.972 75.348,38.889C75.311,38.871 75.255,38.808 75.221,38.771C74.615,37.917 74.078,35.678 74.396,35.789C74.597,35.853 75.013,36.745 75.273,37.651" style="fill:rgb(74,34,51);fill-rule:nonzero;"/>
                    <path d="M73.73,36.21C73.955,36.945 73.918,37.454 73.665,37.34C73.625,37.322 73.586,37.292 73.557,37.27C72.863,36.602 72.401,34.621 72.803,34.656C73.047,34.674 73.494,35.416 73.73,36.21" style="fill:rgb(74,34,51);fill-rule:nonzero;"/>
                    <path d="M71.898,35.138C72.117,35.823 72.026,36.297 71.71,36.16C71.693,36.15 71.673,36.137 71.655,36.128C70.927,35.615 70.526,33.884 70.971,33.861C71.241,33.844 71.675,34.441 71.898,35.138" style="fill:rgb(74,34,51);fill-rule:nonzero;"/>
                    <path d="M69.897,34.379C70.059,34.872 70.055,35.461 69.62,35.298C68.931,34.935 68.543,33.496 68.958,33.333C69.218,33.226 69.677,33.735 69.897,34.379" style="fill:rgb(74,34,51);fill-rule:nonzero;"/>
                    <path d="M67.794,33.871C67.946,34.301 67.927,34.838 67.495,34.725C66.818,34.455 66.469,33.184 66.885,33.003C67.151,32.886 67.591,33.308 67.794,33.871" style="fill:rgb(74,34,51);fill-rule:nonzero;"/>
                    <path d="M65.632,33.569C65.785,33.982 65.717,34.391 65.343,34.328C64.72,34.14 64.415,33.066 64.81,32.88C65.06,32.763 65.459,33.098 65.632,33.569" style="fill:rgb(74,34,51);fill-rule:nonzero;"/>
                    <path d="M63.492,33.441C63.615,33.753 63.581,34.166 63.214,34.132C62.66,34.008 62.371,33.129 62.69,32.9C62.917,32.732 63.327,33.007 63.492,33.441" style="fill:rgb(74,34,51);fill-rule:nonzero;"/>
                    <path d="M61.351,33.449C61.462,33.713 61.426,34.072 61.093,34.061C60.597,33.982 60.343,33.24 60.631,33.02C60.837,32.864 61.205,33.079 61.351,33.449" style="fill:rgb(74,34,51);fill-rule:nonzero;"/>
                    <path d="M59.29,33.569C59.382,33.788 59.357,34.09 59.073,34.093C58.653,34.048 58.436,33.431 58.684,33.235C58.859,33.098 59.169,33.266 59.29,33.569" style="fill:rgb(74,34,51);fill-rule:nonzero;"/>
                    <path d="M57.372,33.771C57.448,33.946 57.424,34.195 57.196,34.212C56.861,34.189 56.679,33.683 56.871,33.521C57.016,33.402 57.268,33.525 57.372,33.771" style="fill:rgb(74,34,51);fill-rule:nonzero;"/>
                    <path d="M55.585,34.032C55.643,34.165 55.631,34.368 55.448,34.384C55.168,34.375 55.025,33.982 55.186,33.842C55.305,33.742 55.498,33.838 55.585,34.032" style="fill:rgb(74,34,51);fill-rule:nonzero;"/>
                    <path d="M53.925,34.329C53.968,34.43 53.958,34.578 53.827,34.594C53.629,34.592 53.521,34.305 53.635,34.203C53.718,34.127 53.862,34.192 53.925,34.329" style="fill:rgb(74,34,51);fill-rule:nonzero;"/>
                    <path d="M55.514,73.447C55.848,74.56 57.283,75.216 59.103,74.394C61.339,73.173 61.192,70.972 59.407,70.402C57.364,69.746 54.962,71.625 55.514,73.447" style="fill:rgb(74,34,51);fill-rule:nonzero;"/>
                    <path d="M62.519,70.407C62.704,71.51 63.84,72.074 65.362,71.071C67.362,69.542 67.311,67.167 65.734,66.899C64.127,66.624 62.242,68.691 62.519,70.407" style="fill:rgb(74,34,51);fill-rule:nonzero;"/>
                    <path d="M68.462,66.64C68.537,67.748 69.357,68.262 70.551,67.149C72.194,65.39 72.178,62.905 70.889,62.919C69.714,62.928 68.351,65.015 68.462,66.64" style="fill:rgb(74,34,51);fill-rule:nonzero;"/>
                    <path d="M73.067,62.469C73.078,63.487 73.511,63.854 74.08,63.319C74.214,63.196 74.327,63.038 74.416,62.918C75.581,61.103 75.59,58.558 74.68,58.802C73.922,59.002 73.055,60.989 73.067,62.469" style="fill:rgb(74,34,51);fill-rule:nonzero;"/>
                    <path d="M76.15,58.299C76.132,59.126 76.291,59.539 76.529,59.317C76.652,59.214 76.755,58.966 76.809,58.834C77.416,57.252 77.462,54.869 77.01,55.006C76.632,55.119 76.168,56.904 76.15,58.299" style="fill:rgb(74,34,51);fill-rule:nonzero;"/>
                    <path d="M77.71,54.611C77.7,55.215 77.717,55.578 77.764,55.691C77.764,55.691 77.784,55.692 77.794,55.691C77.832,55.629 77.852,55.542 77.896,55.265C78.071,54.013 78.141,51.893 78.014,51.665C78.008,51.668 77.997,51.673 77.981,51.673C77.84,51.979 77.727,53.614 77.71,54.611" style="fill:rgb(74,34,51);fill-rule:nonzero;"/>
                    <path d="M43.375,66.734C44.037,68.477 46.063,69.943 48.182,69.27C51.014,67.995 49.729,64.084 46.866,63.1C44.351,62.248 42.426,64.245 43.375,66.734" style="fill:rgb(74,34,51);fill-rule:nonzero;"/>
                    <path d="M51.521,64.371C52.098,66.12 53.968,67.403 55.986,66.439C58.635,64.789 57.549,60.892 54.933,60.207C52.581,59.597 50.7,61.89 51.521,64.371" style="fill:rgb(74,34,51);fill-rule:nonzero;"/>
                    <path d="M59.268,60.984C59.752,62.675 61.343,63.79 63.057,62.645C65.427,60.68 64.306,56.769 61.93,56.573C60.042,56.415 58.618,58.764 59.268,60.984" style="fill:rgb(74,34,51);fill-rule:nonzero;"/>
                    <path d="M65.878,56.961C66.3,58.579 67.587,59.57 68.921,58.351C70.83,56.206 69.625,52.342 67.708,52.563C66.274,52.723 65.351,54.943 65.878,56.961" style="fill:rgb(74,34,51);fill-rule:nonzero;"/>
                    <path d="M71.035,52.667C71.407,54.175 72.366,55.065 73.278,53.865C74.531,51.828 73.521,48.259 72.173,48.505C71.154,48.689 70.579,50.792 71.035,52.667" style="fill:rgb(74,34,51);fill-rule:nonzero;"/>
                    <path d="M74.509,48.506C74.833,49.848 75.42,50.477 75.822,49.916C75.869,49.847 75.921,49.739 75.955,49.665C76.595,47.829 75.624,44.511 74.828,44.905C74.296,45.167 74.139,46.953 74.509,48.506" style="fill:rgb(74,34,51);fill-rule:nonzero;"/>
                    <path d="M76.296,44.932C76.578,46.076 76.918,46.707 77.091,46.4C77.129,46.328 77.152,46.203 77.162,46.123C77.317,44.513 76.49,41.514 76.104,41.779C75.852,41.951 75.946,43.512 76.296,44.932" style="fill:rgb(74,34,51);fill-rule:nonzero;"/>
                    <path d="M76.807,41.943C76.932,42.414 77.145,43.226 77.247,43.381C77.253,43.379 77.257,43.378 77.261,43.373C77.269,43.317 77.267,43.287 77.244,43.122C77.066,41.981 76.413,39.421 76.269,39.267C76.198,39.416 76.609,41.165 76.807,41.943" style="fill:rgb(74,34,51);fill-rule:nonzero;"/>
                    <path d="M48.058,75.409C48.482,76.315 50.036,77.329 52.16,76.749C54.385,75.957 54.102,73.983 52.279,73.149C50.047,72.13 47.392,73.399 47.97,75.208C47.993,75.268 48.028,75.348 48.058,75.409" style="fill:rgb(74,34,51);fill-rule:nonzero;"/>
                </g>
            </g>
        </g>
    </g>
</svg>
