<?xml version="1.0" encoding="utf-8"?>
<!-- Generator: Adobe Illustrator 19.2.0, SVG Export Plug-In . SVG Version: 6.00 Build 0)  -->
<svg version="1.1" id="Ebene_1" xmlns="http://www.w3.org/2000/svg" xmlns:xlink="http://www.w3.org/1999/xlink" x="0px" y="0px"
   viewBox="0 0 200 200" style="enable-background:new 0 0 200 200;" xml:space="preserve">
<style type="text/css">
  .st0{fill:#FFFFFF;}
  .st1{fill:none;stroke:#5C75B3;stroke-width:4;stroke-miterlimit:10;}
  .st2{fill:#DDE8F5;}
  .st3{fill:#BDD1EA;}
</style>
<g id="BG">
  <g>
    <g>
      <path class="st0" d="M19.7,46H173c4.4,0,8,3.6,8,8c0,0,9.7,99,10,101c0.5,3.8-3.2,5.7-6.8,4c-2.7-1.3-19.3-10-19.5-10L19,166
        h-0.1c-4.4,0-7.9-3.6-7.9-8V54.7C11,49.9,14.9,46,19.7,46z"/>
      <g>
        <g>
          <path class="st0" d="M19.7,46H173c4.4,0,8,3.6,8,8c0,0,9.7,99,10,101c0.5,3.8-3.2,5.7-6.8,4c-2.7-1.3-19.3-10-19.5-10L19,166
            h-0.1c-4.4,0-7.9-3.6-7.9-8V54.7C11,49.9,14.9,46,19.7,46z"/>
          <path class="st1" d="M19.7,46H173c4.4,0,8,3.6,8,8c0,0,9.7,99,10,101c0.5,3.8-3.2,5.7-6.8,4c-2.7-1.3-19.3-10-19.5-10L19,166
            h-0.1c-4.4,0-7.9-3.6-7.9-8V54.7C11,49.9,14.9,46,19.7,46z"/>
        </g>
      </g>
    </g>
  </g>
</g>
</svg>
